<?xml version="1.0" encoding="UTF-8"?>
<!-- Generator: visioncortex VTracer 0.6.3 -->
<svg version="1.1" xmlns="http://www.w3.org/2000/svg" width="1280" height="1280">
<path d="M0 0 C3.34 1.17 5.77 2.19 8 5 C8 5.66 8 6.32 8 7 C8.59 7.26 9.17 7.51 9.77 7.78 C12.19 9.11 13.73 10.57 15.62 12.56 C18.05 15.14 18.05 15.14 21 17 C21 17.66 21 18.32 21 19 C21.56 19.25 22.11 19.5 22.69 19.75 C25.42 21.23 27.68 22.93 30 25 C30 25.66 30 26.32 30 27 C30.88 27.38 30.88 27.38 31.77 27.78 C34.19 29.11 35.73 30.57 37.62 32.56 C40.05 35.14 40.05 35.14 43 37 C43 37.66 43 38.32 43 39 C43.99 39.33 44.98 39.66 46 40 C46 40.66 46 41.32 46 42 C46.59 42.27 47.19 42.55 47.8 42.83 C49.94 43.97 51.42 45.12 53.16 46.79 C53.73 47.32 54.29 47.85 54.88 48.39 C55.45 48.94 56.03 49.49 56.62 50.06 C60.49 53.97 60.49 53.97 65 57 C65 57.66 65 58.32 65 59 C66.48 59.5 66.48 59.5 68 60 C68 60.66 68 61.32 68 62 C68.58 62.27 69.16 62.54 69.75 62.81 C72.06 64.03 74.02 65.3 76 67 C76 67.66 76 68.32 76 69 C76.66 69 77.32 69 78 69 C79.62 70.38 79.62 70.38 81 72 C81 72.66 81 73.32 81 74 C81.52 74.21 82.05 74.41 82.59 74.62 C86.04 76.6 88.7 79.27 91.56 82 C92.71 83.09 93.85 84.17 95 85.25 C95.51 85.73 96.01 86.21 96.53 86.7 C98.18 88.22 98.18 88.22 101 90 C101 90.66 101 91.32 101 92 C101.66 92 102.32 92 103 92 C103 92.66 103 93.32 103 94 C103.59 94.27 104.18 94.54 104.79 94.81 C107.02 96.01 108.56 97.26 110.38 99 C110.99 99.58 111.6 100.16 112.23 100.75 C113.17 101.65 113.17 101.65 114.12 102.56 C115.38 103.75 116.63 104.94 117.88 106.13 C118.43 106.66 118.98 107.18 119.55 107.72 C120.99 109.1 120.99 109.1 123 110 C123 110.66 123 111.32 123 112 C123.64 112.27 124.28 112.54 124.94 112.81 C127 114 127 114 128 117 C129.85 118.05 129.85 118.05 132 119 C134.25 120.5 134.25 120.5 136 122 C136 122.66 136 123.32 136 124 C136.87 124.39 136.87 124.39 137.76 124.78 C140.17 126.09 141.85 127.54 143.82 129.44 C144.52 130.11 145.22 130.77 145.94 131.46 C147.02 132.5 147.02 132.5 148.12 133.56 C149.56 134.94 151 136.32 152.45 137.69 C153.4 138.61 153.4 138.61 154.37 139.54 C155.95 141.09 155.95 141.09 158 142 C158 142.66 158 143.32 158 144 C158.99 144.33 159.98 144.66 161 145 C161 145.66 161 146.32 161 147 C161.53 147.21 162.05 147.42 162.6 147.63 C166 149.57 168.61 152.18 171.44 154.88 C172.56 155.94 173.68 157 174.81 158.05 C175.34 158.56 175.88 159.06 176.43 159.58 C177.87 160.88 179.39 162.07 180.91 163.26 C181.6 163.83 182.29 164.41 183 165 C183 165.66 183 166.32 183 167 C183.8 167.34 183.8 167.34 184.62 167.69 C188.85 170.02 192.85 173.32 196 177 C196 177.66 196 178.32 196 179 C196.56 179.25 197.11 179.5 197.69 179.75 C200.42 181.23 202.68 182.93 205 185 C205 185.66 205 186.32 205 187 C205.59 187.26 206.17 187.51 206.77 187.78 C209.19 189.11 210.73 190.57 212.62 192.56 C215.05 195.14 215.05 195.14 218 197 C218 197.66 218 198.32 218 199 C218.59 199.27 219.18 199.54 219.79 199.81 C222.02 201.01 223.56 202.26 225.38 204 C225.99 204.58 226.6 205.16 227.23 205.75 C227.86 206.35 228.48 206.95 229.12 207.56 C230.38 208.75 231.63 209.94 232.88 211.13 C233.43 211.66 233.98 212.18 234.55 212.72 C235.99 214.1 235.99 214.1 238 215 C238 215.66 238 216.32 238 217 C238.66 217 239.32 217 240 217 C240 217.66 240 218.32 240 219 C240.99 219.33 241.98 219.66 243 220 C243 220.66 243 221.32 243 222 C243.58 222.27 244.16 222.54 244.75 222.81 C247.06 224.03 249.02 225.3 251 227 C251 227.66 251 228.32 251 229 C251.58 229.26 252.16 229.52 252.76 229.78 C255.17 231.09 256.85 232.54 258.82 234.44 C259.52 235.11 260.22 235.77 260.94 236.46 C262.02 237.5 262.02 237.5 263.12 238.56 C264.56 239.94 266 241.32 267.45 242.69 C268.08 243.3 268.71 243.91 269.37 244.54 C270.95 246.09 270.95 246.09 273 247 C273 247.66 273 248.32 273 249 C273.99 249.33 274.98 249.66 276 250 C276 250.66 276 251.32 276 252 C276.66 252 277.32 252 278 252 C278 252.66 278 253.32 278 254 C278.55 254.23 279.1 254.46 279.66 254.7 C282.67 256.38 284.92 258.52 287.44 260.88 C290.18 263.43 292.88 265.9 295.85 268.2 C296.56 268.79 297.27 269.39 298 270 C298 270.66 298 271.32 298 272 C298.59 272.26 299.17 272.51 299.77 272.78 C302.19 274.11 303.73 275.57 305.62 277.56 C308.05 280.14 308.05 280.14 311 282 C311 282.66 311 283.32 311 284 C311.84 284.37 311.84 284.37 312.69 284.75 C315.42 286.23 317.68 287.93 320 290 C320 290.66 320 291.32 320 292 C320.59 292.26 321.17 292.51 321.77 292.78 C324.19 294.11 325.73 295.57 327.62 297.56 C330.05 300.14 330.05 300.14 333 302 C333 302.66 333 303.32 333 304 C333.99 304.33 334.98 304.66 336 305 C336 305.66 336 306.32 336 307 C336.54 307.23 337.09 307.45 337.65 307.68 C340.74 309.41 343.04 311.65 345.62 314.06 C349.04 317.42 349.04 317.42 353 320 C353 320.66 353 321.32 353 322 C353.66 322 354.32 322 355 322 C355 322.66 355 323.32 355 324 C355.99 324.33 356.98 324.66 358 325 C358 325.66 358 326.32 358 327 C358.87 327.4 358.87 327.4 359.75 327.81 C362.06 329.03 364.02 330.3 366 332 C366 332.66 366 333.32 366 334 C366.66 334 367.32 334 368 334 C368 334.66 368 335.32 368 336 C368.59 336.27 369.18 336.54 369.79 336.81 C372.02 338.01 373.56 339.26 375.38 341 C376.3 341.87 376.3 341.87 377.23 342.75 C378.17 343.65 378.17 343.65 379.12 344.56 C380.38 345.75 381.63 346.94 382.88 348.13 C383.43 348.66 383.98 349.18 384.55 349.72 C385.99 351.1 385.99 351.1 388 352 C388 352.66 388 353.32 388 354 C388.99 354.33 389.98 354.66 391 355 C391 355.66 391 356.32 391 357 C391.66 357 392.32 357 393 357 C393 357.66 393 358.32 393 359 C393.59 359.27 394.18 359.54 394.79 359.81 C397.02 361.01 398.56 362.26 400.38 364 C401.3 364.87 401.3 364.87 402.23 365.75 C403.17 366.65 403.17 366.65 404.12 367.56 C405.38 368.75 406.63 369.94 407.88 371.13 C408.43 371.66 408.98 372.18 409.55 372.72 C410.99 374.1 410.99 374.1 413 375 C413 375.66 413 376.32 413 377 C413.59 377.26 414.17 377.51 414.77 377.78 C417.19 379.11 418.73 380.57 420.62 382.56 C423.05 385.14 423.05 385.14 426 387 C426 387.66 426 388.32 426 389 C426.84 389.37 426.84 389.37 427.69 389.75 C430.42 391.23 432.68 392.93 435 395 C435 395.66 435 396.32 435 397 C435.59 397.26 436.17 397.51 436.77 397.78 C439.19 399.11 440.73 400.57 442.62 402.56 C445.05 405.14 445.05 405.14 448 407 C448 407.66 448 408.32 448 409 C448.99 409.33 449.98 409.66 451 410 C451 410.66 451 411.32 451 412 C451.59 412.27 452.19 412.55 452.8 412.83 C454.94 413.97 456.42 415.12 458.16 416.79 C458.73 417.32 459.29 417.85 459.88 418.39 C460.74 419.22 460.74 419.22 461.62 420.06 C465.49 423.97 465.49 423.97 470 427 C470 427.66 470 428.32 470 429 C470.99 429.33 471.98 429.66 473 430 C473 430.66 473 431.32 473 432 C473.8 432.34 473.8 432.34 474.62 432.69 C478.85 435.02 482.85 438.32 486 442 C486 442.66 486 443.32 486 444 C486.79 444.31 486.79 444.31 487.59 444.62 C491.04 446.6 493.7 449.27 496.56 452 C497.71 453.09 498.85 454.17 500 455.25 C500.51 455.73 501.01 456.21 501.53 456.7 C503.18 458.22 503.18 458.22 506 460 C506 460.66 506 461.32 506 462 C506.66 462 507.32 462 508 462 C508 462.66 508 463.32 508 464 C508.59 464.27 509.18 464.54 509.79 464.81 C512.02 466.01 513.56 467.26 515.38 469 C516.3 469.87 516.3 469.87 517.23 470.75 C517.86 471.35 518.48 471.95 519.12 472.56 C520.38 473.75 521.63 474.94 522.88 476.13 C523.43 476.66 523.98 477.18 524.55 477.72 C525.99 479.1 525.99 479.1 528 480 C528 480.66 528 481.32 528 482 C528.96 482.4 528.96 482.4 529.94 482.81 C532 484 532 484 533 487 C534.85 488.05 534.85 488.05 537 489 C539.25 490.5 539.25 490.5 541 492 C541 492.66 541 493.32 541 494 C541.54 494.23 542.09 494.45 542.65 494.68 C545.74 496.41 548.04 498.65 550.62 501.06 C554.04 504.42 554.04 504.42 558 507 C558 507.66 558 508.32 558 509 C558.68 509.23 559.36 509.45 560.06 509.69 C563.04 511.02 565.44 512.72 568.06 514.64 C574.55 519.19 581.62 522.23 589 525 C589.68 525.27 590.36 525.53 591.06 525.81 C605.44 531.39 619.45 533.38 634.88 533.31 C635.53 533.31 636.19 533.31 636.87 533.31 C646.64 533.26 655.6 532.79 665 530 C665.98 529.73 665.98 529.73 666.97 529.45 C681.92 525.25 695.43 519.05 708.15 510.14 C710 509 710 509 712 509 C712 508.34 712 507.68 712 507 C713.7 505.48 715.46 504.03 717.25 502.62 C720.05 500.41 722.74 498.27 725.23 495.71 C727 494 727 494 729 494 C729 493.34 729 492.68 729 492 C734.48 487 734.48 487 737 487 C737.33 486.01 737.66 485.02 738 484 C738.66 484 739.32 484 740 484 C740 483.34 740 482.68 740 482 C740.66 482 741.32 482 742 482 C742 481.34 742 480.68 742 480 C743.5 478.48 743.5 478.48 745.56 476.75 C746.29 476.14 747.01 475.52 747.76 474.89 C748.5 474.26 749.24 473.64 750 473 C750.67 472.41 751.33 471.82 752.02 471.21 C752.63 470.66 753.24 470.12 753.88 469.56 C754.43 469.07 754.98 468.58 755.55 468.07 C757 467 757 467 759 467 C759.33 466.01 759.66 465.02 760 464 C760.66 464 761.32 464 762 464 C762 463.34 762 462.68 762 462 C763.64 460.38 763.64 460.38 765.81 458.56 C768.82 456.03 768.82 456.03 771.64 453.28 C773 452 773 452 775 452 C775 451.34 775 450.68 775 450 C776.46 448.49 776.46 448.49 778.38 446.88 C779.31 446.07 779.31 446.07 780.27 445.24 C782 444 782 444 784 444 C784 443.34 784 442.68 784 442 C785.64 440.38 785.64 440.38 787.81 438.56 C790.82 436.03 790.82 436.03 793.64 433.28 C795 432 795 432 797 432 C797 431.34 797 430.68 797 430 C798.33 428.66 798.33 428.66 800.25 427.06 C802.93 424.79 805.57 422.49 808.13 420.09 C808.67 419.59 809.2 419.09 809.76 418.58 C810.83 417.57 811.9 416.57 812.96 415.56 C816.78 412 816.78 412 819 412 C819.33 411.01 819.66 410.02 820 409 C820.66 409 821.32 409 822 409 C822 408.34 822 407.68 822 407 C823.33 405.66 823.33 405.66 825.25 404.06 C827.93 401.79 830.57 399.49 833.13 397.09 C833.67 396.59 834.2 396.09 834.76 395.58 C835.83 394.57 836.9 393.57 837.96 392.56 C841.78 389 841.78 389 844 389 C844 388.34 844 387.68 844 387 C849.48 382 849.48 382 852 382 C852.27 381.36 852.54 380.72 852.81 380.06 C854 378 854 378 857 377 C857 376.34 857 375.68 857 375 C858.4 373.59 858.4 373.59 860.38 371.94 C864.66 368.31 868.78 364.54 872.9 360.72 C875 359 875 359 877 359 C877 358.34 877 357.68 877 357 C877.66 357 878.32 357 879 357 C879 356.34 879 355.68 879 355 C880.64 353.31 880.64 353.31 882.81 351.44 C883.52 350.82 884.23 350.2 884.96 349.56 C887 348 887 348 890 347 C890 346.34 890 345.68 890 345 C891.4 343.59 891.4 343.59 893.38 341.94 C897.59 338.37 901.65 334.67 905.7 330.92 C907.76 329.2 909.56 328.06 912 327 C912 326.34 912 325.68 912 325 C913.33 323.66 913.33 323.66 915.25 322.06 C917.93 319.79 920.57 317.49 923.13 315.09 C923.67 314.59 924.2 314.09 924.76 313.58 C925.83 312.57 926.9 311.57 927.96 310.56 C931.78 307 931.78 307 934 307 C934.33 306.01 934.66 305.02 935 304 C935.66 304 936.32 304 937 304 C937 303.34 937 302.68 937 302 C938.64 300.38 938.64 300.38 940.81 298.56 C943.82 296.03 943.82 296.03 946.64 293.28 C948 292 948 292 950 292 C950 291.34 950 290.68 950 290 C951.46 288.49 951.46 288.49 953.38 286.88 C954.31 286.07 954.31 286.07 955.27 285.24 C957 284 957 284 959 284 C959 283.34 959 282.68 959 282 C960.64 280.38 960.64 280.38 962.81 278.56 C965.82 276.03 965.82 276.03 968.64 273.28 C970 272 970 272 972 272 C972 271.34 972 270.68 972 270 C973.61 268.34 973.61 268.34 975.75 266.5 C976.45 265.89 977.14 265.28 977.86 264.66 C979.84 263.12 981.72 262.03 984 261 C984 260.34 984 259.68 984 259 C989.48 254 989.48 254 992 254 C992 253.34 992 252.68 992 252 C992.66 252 993.32 252 994 252 C994.33 251.01 994.66 250.02 995 249 C995.66 249 996.32 249 997 249 C997 248.34 997 247.68 997 247 C998.6 245.59 1000.26 244.25 1001.94 242.94 C1006.73 239.13 1011.02 235.1 1015.22 230.65 C1017 229 1017 229 1019 229 C1019 228.34 1019 227.68 1019 227 C1024.48 222 1024.48 222 1027 222 C1027.33 221.01 1027.66 220.02 1028 219 C1028.66 219 1029.32 219 1030 219 C1030 218.34 1030 217.68 1030 217 C1031.64 215.31 1031.64 215.31 1033.81 213.44 C1034.52 212.82 1035.23 212.2 1035.96 211.56 C1038 210 1038 210 1041 209 C1041 208.34 1041 207.68 1041 207 C1046.48 202 1046.48 202 1049 202 C1049.33 201.01 1049.66 200.02 1050 199 C1050.66 199 1051.32 199 1052 199 C1052 198.34 1052 197.68 1052 197 C1053.64 195.38 1053.64 195.38 1055.81 193.56 C1058.82 191.03 1058.82 191.03 1061.64 188.28 C1063 187 1063 187 1065 187 C1065 186.34 1065 185.68 1065 185 C1066.46 183.49 1066.46 183.49 1068.38 181.88 C1069.31 181.07 1069.31 181.07 1070.27 180.24 C1072 179 1072 179 1074 179 C1074 178.34 1074 177.68 1074 177 C1075.64 175.38 1075.64 175.38 1077.81 173.56 C1080.82 171.03 1080.82 171.03 1083.64 168.28 C1085 167 1085 167 1087 167 C1087 166.34 1087 165.68 1087 165 C1088.4 163.59 1088.4 163.59 1090.38 161.94 C1094.66 158.31 1098.78 154.54 1102.9 150.72 C1105 149 1105 149 1107 149 C1107 148.34 1107 147.68 1107 147 C1107.66 147 1108.32 147 1109 147 C1109.33 146.01 1109.66 145.02 1110 144 C1110.66 144 1111.32 144 1112 144 C1112 143.34 1112 142.68 1112 142 C1113.4 140.59 1113.4 140.59 1115.38 138.94 C1119.59 135.37 1123.65 131.67 1127.7 127.92 C1129.76 126.2 1131.56 125.06 1134 124 C1134 123.34 1134 122.68 1134 122 C1139.48 117 1139.48 117 1142 117 C1142.33 116.01 1142.66 115.02 1143 114 C1143.66 114 1144.32 114 1145 114 C1145 113.34 1145 112.68 1145 112 C1145.66 112 1146.32 112 1147 112 C1147 111.34 1147 110.68 1147 110 C1148.5 108.48 1148.5 108.48 1150.56 106.75 C1151.29 106.14 1152.01 105.52 1152.76 104.89 C1153.5 104.26 1154.24 103.64 1155 103 C1155.67 102.41 1156.33 101.82 1157.02 101.21 C1157.63 100.66 1158.24 100.12 1158.88 99.56 C1159.43 99.07 1159.98 98.58 1160.55 98.07 C1162 97 1162 97 1164 97 C1164.33 96.01 1164.66 95.02 1165 94 C1165.66 94 1166.32 94 1167 94 C1167 93.34 1167 92.68 1167 92 C1167.66 92 1168.32 92 1169 92 C1169 91.34 1169 90.68 1169 90 C1170.64 88.31 1170.64 88.31 1172.81 86.44 C1173.52 85.82 1174.23 85.2 1174.96 84.56 C1177 83 1177 83 1180 82 C1180 81.34 1180 80.68 1180 80 C1181.46 78.49 1181.46 78.49 1183.38 76.88 C1184 76.34 1184.63 75.8 1185.27 75.24 C1187 74 1187 74 1189 74 C1189 73.34 1189 72.68 1189 72 C1190.64 70.38 1190.64 70.38 1192.81 68.56 C1195.82 66.03 1195.82 66.03 1198.64 63.28 C1200 62 1200 62 1202 62 C1202 61.34 1202 60.68 1202 60 C1203.33 58.66 1203.33 58.66 1205.25 57.06 C1207.93 54.79 1210.57 52.49 1213.13 50.09 C1213.94 49.34 1213.94 49.34 1214.76 48.58 C1215.83 47.57 1216.9 46.57 1217.96 45.56 C1221.78 42 1221.78 42 1224 42 C1224.33 41.01 1224.66 40.02 1225 39 C1225.66 39 1226.32 39 1227 39 C1227 38.34 1227 37.68 1227 37 C1228.33 35.66 1228.33 35.66 1230.25 34.06 C1232.93 31.79 1235.57 29.49 1238.13 27.09 C1238.94 26.34 1238.94 26.34 1239.76 25.58 C1240.83 24.57 1241.9 23.57 1242.96 22.56 C1246.78 19 1246.78 19 1249 19 C1249 18.34 1249 17.68 1249 17 C1254.48 12 1254.48 12 1257 12 C1257.27 11.36 1257.54 10.72 1257.81 10.06 C1259 8 1259 8 1262 7 C1262 6.34 1262 5.68 1262 5 C1267.48 0 1267.48 0 1270 0 C1271.25 2.49 1271.13 4.15 1271.13 6.94 C1271.13 7.99 1271.13 9.05 1271.14 10.13 C1271.14 11.3 1271.13 12.47 1271.13 13.68 C1271.13 15.53 1271.13 15.53 1271.14 17.43 C1271.14 20.89 1271.14 24.35 1271.14 27.82 C1271.14 31.57 1271.15 35.33 1271.15 39.09 C1271.16 46.55 1271.16 54.02 1271.16 61.48 C1271.16 70.42 1271.17 79.35 1271.17 88.29 C1271.19 109.89 1271.2 131.5 1271.2 153.1 C1271.2 163.32 1271.21 173.54 1271.21 183.75 C1271.22 218.72 1271.23 253.68 1271.24 288.65 C1271.24 290.84 1271.24 293.04 1271.24 295.24 C1271.24 297.44 1271.24 299.64 1271.24 301.84 C1271.24 306.26 1271.24 310.67 1271.24 315.09 C1271.24 316.19 1271.24 317.28 1271.24 318.41 C1271.24 353.91 1271.26 389.41 1271.28 424.92 C1271.31 462.44 1271.32 499.96 1271.32 537.48 C1271.32 541.6 1271.32 545.72 1271.32 549.84 C1271.32 550.85 1271.32 551.87 1271.32 552.91 C1271.32 569.24 1271.34 585.57 1271.35 601.89 C1271.36 618.3 1271.37 634.71 1271.36 651.13 C1271.36 660.88 1271.36 670.63 1271.38 680.38 C1271.39 686.89 1271.38 693.41 1271.37 699.92 C1271.37 703.64 1271.37 707.35 1271.38 711.06 C1271.39 715.06 1271.38 719.06 1271.37 723.07 C1271.38 724.21 1271.39 725.36 1271.39 726.54 C1271.32 738.08 1268.71 747.98 1263 758 C1262.55 758.79 1262.1 759.58 1261.64 760.4 C1259.21 764.48 1259.21 764.48 1258 766 C1257.34 766 1256.68 766 1256 766 C1255.79 766.54 1255.59 767.07 1255.38 767.62 C1253.47 770.92 1250.95 773.59 1248 776 C1247.34 776 1246.68 776 1246 776 C1246 776.66 1246 777.32 1246 778 C1245.01 778 1244.02 778 1243 778 C1243 778.66 1243 779.32 1243 780 C1241.27 780.96 1239.54 781.92 1237.81 782.88 C1236.37 783.68 1236.37 783.68 1234.89 784.49 C1221.69 791.37 1207.76 791.44 1193.26 791.38 C1191.28 791.38 1189.3 791.39 1187.31 791.39 C1181.87 791.4 1176.43 791.4 1170.99 791.39 C1165.06 791.38 1159.14 791.39 1153.21 791.4 C1142.83 791.41 1132.45 791.41 1122.07 791.4 C1110.94 791.39 1099.81 791.39 1088.67 791.39 C1087.62 791.39 1087.62 791.39 1086.54 791.4 C1083.67 791.4 1080.8 791.4 1077.94 791.4 C1051.24 791.42 1024.55 791.42 997.86 791.41 C997.07 791.41 996.28 791.41 995.47 791.41 C994.28 791.41 994.28 791.41 993.07 791.41 C968.94 791.4 944.82 791.4 920.69 791.4 C919.08 791.4 917.46 791.4 915.85 791.4 C909.35 791.4 902.86 791.4 896.37 791.41 C878.22 791.41 860.07 791.41 841.91 791.41 C840.67 791.41 840.67 791.41 839.41 791.41 C813.07 791.41 786.74 791.41 760.4 791.4 C759.55 791.4 758.7 791.4 757.82 791.4 C743.95 791.4 730.08 791.39 716.21 791.39 C661.2 791.38 606.19 791.38 551.18 791.39 C537.32 791.39 523.46 791.4 509.6 791.4 C508.74 791.4 507.89 791.4 507.01 791.4 C480.7 791.41 454.39 791.41 428.09 791.41 C426.85 791.41 426.85 791.41 425.58 791.41 C407.45 791.41 389.32 791.41 371.19 791.4 C364.7 791.4 358.22 791.4 351.73 791.4 C350.11 791.4 348.5 791.4 346.89 791.4 C322.77 791.4 298.65 791.4 274.53 791.41 C273.35 791.41 273.35 791.41 272.14 791.41 C270.96 791.41 270.96 791.41 269.75 791.41 C243.13 791.42 216.52 791.41 189.9 791.4 C187.04 791.4 184.19 791.4 181.33 791.39 C180.63 791.39 179.92 791.39 179.2 791.39 C168.1 791.39 157 791.39 145.89 791.4 C134.97 791.41 124.05 791.4 113.13 791.39 C107.29 791.38 101.45 791.38 95.61 791.39 C90.29 791.4 84.98 791.4 79.66 791.38 C77.75 791.38 75.84 791.38 73.94 791.39 C59.88 791.44 46.73 790.77 34.12 783.81 C33.43 783.44 32.73 783.08 32 782.7 C30.33 781.81 28.66 780.91 27 780 C27 779.34 27 778.68 27 778 C26.01 778 25.02 778 24 778 C24 777.34 24 776.68 24 776 C23.46 775.79 22.93 775.59 22.38 775.38 C19.08 773.47 16.41 770.95 14 768 C14 767.34 14 766.68 14 766 C13.34 766 12.68 766 12 766 C4.35 755.74 -1.12 743.64 -1.13 730.67 C-1.13 729.61 -1.13 728.55 -1.13 727.45 C-1.13 726.29 -1.13 725.13 -1.13 723.93 C-1.13 722.68 -1.13 721.44 -1.13 720.16 C-1.13 716.69 -1.13 713.22 -1.13 709.76 C-1.13 705.99 -1.13 702.22 -1.13 698.46 C-1.14 691.85 -1.14 685.24 -1.13 678.64 C-1.13 668.81 -1.13 658.99 -1.13 649.17 C-1.14 631.63 -1.14 614.09 -1.14 596.55 C-1.13 581.2 -1.13 565.85 -1.13 550.5 C-1.13 549.48 -1.13 548.47 -1.13 547.42 C-1.13 543.29 -1.13 539.16 -1.14 535.04 C-1.14 496.3 -1.14 457.56 -1.13 418.81 C-1.13 384.37 -1.13 349.92 -1.13 315.47 C-1.14 276.8 -1.14 238.13 -1.13 199.46 C-1.13 195.34 -1.13 191.22 -1.13 187.1 C-1.13 186.08 -1.13 185.07 -1.13 184.02 C-1.13 168.68 -1.13 153.34 -1.14 137.99 C-1.14 120.56 -1.14 103.12 -1.13 85.68 C-1.13 75.91 -1.13 66.14 -1.13 56.37 C-1.14 49.86 -1.13 43.35 -1.13 36.83 C-1.13 33.11 -1.13 29.39 -1.13 25.68 C-1.13 21.68 -1.13 17.69 -1.13 13.7 C-1.13 12.52 -1.13 11.35 -1.13 10.15 C-1.13 9.09 -1.13 8.04 -1.13 6.95 C-1.13 6.03 -1.13 5.12 -1.13 4.18 C-1 2 -1 2 0 0 Z " fill="#000000" transform="translate(5,295)"/>
<path d="M0 0 C0.73 0 1.45 0.01 2.2 0.01 C2.97 0.01 3.74 0.01 4.54 0.01 C7.15 -0 9.77 0 12.39 0.01 C14.28 0.01 16.17 0.01 18.07 0 C23.31 -0.01 28.55 -0 33.79 0 C39.48 0.01 45.16 -0 50.85 -0.01 C60.83 -0.02 70.81 -0.02 80.79 -0.01 C91.5 -0.01 102.22 -0.01 112.93 -0.02 C113.61 -0.02 114.28 -0.02 114.98 -0.02 C117.73 -0.02 120.48 -0.02 123.23 -0.02 C151.2 -0.04 179.16 -0.04 207.12 -0.04 C210.99 -0.04 214.85 -0.04 218.72 -0.04 C219.87 -0.04 219.87 -0.04 221.05 -0.04 C238.05 -0.03 255.05 -0.04 272.05 -0.04 C275.93 -0.04 279.81 -0.04 283.69 -0.04 C285.25 -0.04 286.81 -0.04 288.36 -0.04 C289.13 -0.04 289.91 -0.04 290.7 -0.04 C292.26 -0.04 293.82 -0.04 295.38 -0.04 C339.69 -0.05 384 -0.06 428.3 -0.05 C429.12 -0.05 429.95 -0.05 430.79 -0.05 C439.94 -0.05 449.1 -0.05 458.25 -0.05 C459.08 -0.05 459.91 -0.05 460.76 -0.05 C467.63 -0.05 467.63 -0.05 470.78 -0.05 C523.66 -0.04 576.54 -0.05 629.42 -0.07 C642.74 -0.07 656.07 -0.08 669.39 -0.08 C670.21 -0.08 671.03 -0.08 671.88 -0.08 C697.15 -0.09 722.42 -0.1 747.69 -0.1 C748.48 -0.1 749.28 -0.1 750.09 -0.1 C767.5 -0.1 784.9 -0.1 802.31 -0.1 C808.54 -0.1 814.76 -0.1 820.99 -0.1 C822.54 -0.1 824.09 -0.1 825.64 -0.1 C850.36 -0.09 875.08 -0.1 899.8 -0.11 C925.38 -0.13 950.96 -0.13 976.54 -0.11 C979.28 -0.11 982.02 -0.11 984.76 -0.11 C985.44 -0.11 986.11 -0.11 986.8 -0.11 C998.14 -0.1 1009.48 -0.11 1020.82 -0.12 C1030.66 -0.13 1040.5 -0.13 1050.34 -0.12 C1055.96 -0.11 1061.58 -0.11 1067.2 -0.12 C1072.3 -0.13 1077.41 -0.13 1082.51 -0.11 C1084.35 -0.11 1086.2 -0.11 1088.04 -0.12 C1090.53 -0.13 1093.01 -0.12 1095.5 -0.11 C1096.22 -0.12 1096.95 -0.12 1097.69 -0.13 C1099.68 -0.11 1099.68 -0.11 1102.85 0.27 C1103.51 1.26 1104.17 2.25 1104.85 3.27 C1103.89 4.27 1102.94 5.27 1101.97 6.27 C1101.44 6.82 1100.9 7.38 1100.35 7.95 C1098.85 9.27 1098.85 9.27 1096.85 9.27 C1096.58 9.91 1096.31 10.54 1096.03 11.2 C1094.85 13.27 1094.85 13.27 1091.85 14.27 C1091.85 14.93 1091.85 15.59 1091.85 16.27 C1090.45 17.68 1090.45 17.68 1088.47 19.33 C1084.19 22.95 1080.06 26.73 1075.95 30.54 C1073.85 32.27 1073.85 32.27 1071.85 32.27 C1071.85 32.93 1071.85 33.59 1071.85 34.27 C1071.19 34.27 1070.53 34.27 1069.85 34.27 C1069.52 35.26 1069.19 36.25 1068.85 37.27 C1068.19 37.27 1067.53 37.27 1066.85 37.27 C1066.85 37.93 1066.85 38.59 1066.85 39.27 C1065.45 40.68 1065.45 40.68 1063.47 42.33 C1059.19 45.95 1055.06 49.73 1050.95 53.54 C1048.85 55.27 1048.85 55.27 1046.85 55.27 C1046.85 55.93 1046.85 56.59 1046.85 57.27 C1046.19 57.27 1045.53 57.27 1044.85 57.27 C1044.85 57.93 1044.85 58.59 1044.85 59.27 C1039.37 64.27 1039.37 64.27 1036.85 64.27 C1036.52 65.26 1036.19 66.25 1035.85 67.27 C1035.19 67.27 1034.53 67.27 1033.85 67.27 C1033.85 67.93 1033.85 68.59 1033.85 69.27 C1033.19 69.27 1032.53 69.27 1031.85 69.27 C1031.85 69.93 1031.85 70.59 1031.85 71.27 C1030.45 72.68 1030.45 72.68 1028.47 74.33 C1024.19 77.95 1020.06 81.73 1015.95 85.54 C1013.85 87.27 1013.85 87.27 1011.85 87.27 C1011.85 87.93 1011.85 88.59 1011.85 89.27 C1010.2 90.89 1010.2 90.89 1008.03 92.7 C1005.02 95.24 1005.02 95.24 1002.21 97.99 C1000.85 99.27 1000.85 99.27 998.85 99.27 C998.85 99.93 998.85 100.59 998.85 101.27 C997.39 102.77 997.39 102.77 995.47 104.39 C994.85 104.93 994.22 105.47 993.57 106.02 C991.85 107.27 991.85 107.27 989.85 107.27 C989.85 107.93 989.85 108.59 989.85 109.27 C988.2 110.89 988.2 110.89 986.03 112.7 C983.02 115.24 983.02 115.24 980.21 117.99 C978.85 119.27 978.85 119.27 976.85 119.27 C976.85 119.93 976.85 120.59 976.85 121.27 C975.52 122.61 975.52 122.61 973.6 124.2 C970.91 126.47 968.28 128.77 965.71 131.17 C965.18 131.67 964.64 132.17 964.09 132.69 C963.02 133.69 961.95 134.7 960.89 135.71 C957.07 139.27 957.07 139.27 954.85 139.27 C954.52 140.26 954.19 141.25 953.85 142.27 C953.19 142.27 952.53 142.27 951.85 142.27 C951.85 142.93 951.85 143.59 951.85 144.27 C950.2 145.89 950.2 145.89 948.03 147.7 C945.02 150.24 945.02 150.24 942.21 152.99 C940.85 154.27 940.85 154.27 938.85 154.27 C938.85 154.93 938.85 155.59 938.85 156.27 C937.39 157.77 937.39 157.77 935.47 159.39 C934.53 160.2 934.53 160.2 933.57 161.02 C931.85 162.27 931.85 162.27 929.85 162.27 C929.85 162.93 929.85 163.59 929.85 164.27 C928.2 165.89 928.2 165.89 926.03 167.7 C923.02 170.24 923.02 170.24 920.21 172.99 C918.85 174.27 918.85 174.27 916.85 174.27 C916.85 174.93 916.85 175.59 916.85 176.27 C915.24 177.92 915.24 177.92 913.1 179.77 C912.4 180.37 911.7 180.98 910.99 181.61 C909 183.15 907.13 184.24 904.85 185.27 C904.85 185.93 904.85 186.59 904.85 187.27 C899.37 192.27 899.37 192.27 896.85 192.27 C896.85 192.93 896.85 193.59 896.85 194.27 C896.19 194.27 895.53 194.27 894.85 194.27 C894.52 195.26 894.19 196.25 893.85 197.27 C893.19 197.27 892.53 197.27 891.85 197.27 C891.85 197.93 891.85 198.59 891.85 199.27 C890.52 200.61 890.52 200.61 888.6 202.2 C885.91 204.47 883.28 206.77 880.71 209.17 C880.18 209.67 879.64 210.17 879.09 210.69 C878.02 211.69 876.95 212.7 875.89 213.71 C872.07 217.27 872.07 217.27 869.85 217.27 C869.85 217.93 869.85 218.59 869.85 219.27 C864.37 224.27 864.37 224.27 861.85 224.27 C861.52 225.26 861.19 226.25 860.85 227.27 C860.19 227.27 859.53 227.27 858.85 227.27 C858.85 227.93 858.85 228.59 858.85 229.27 C858.19 229.27 857.53 229.27 856.85 229.27 C856.85 229.93 856.85 230.59 856.85 231.27 C855.45 232.68 855.45 232.68 853.47 234.33 C849.19 237.95 845.06 241.73 840.95 245.54 C838.85 247.27 838.85 247.27 836.85 247.27 C836.85 247.93 836.85 248.59 836.85 249.27 C836.19 249.27 835.53 249.27 834.85 249.27 C834.85 249.93 834.85 250.59 834.85 251.27 C833.45 252.68 833.45 252.68 831.47 254.33 C827.19 257.95 823.06 261.73 818.95 265.54 C816.85 267.27 816.85 267.27 814.85 267.27 C814.85 267.93 814.85 268.59 814.85 269.27 C813.2 270.89 813.2 270.89 811.03 272.7 C808.02 275.24 808.02 275.24 805.21 277.99 C803.85 279.27 803.85 279.27 801.85 279.27 C801.52 280.26 801.19 281.25 800.85 282.27 C800.19 282.27 799.53 282.27 798.85 282.27 C798.85 282.93 798.85 283.59 798.85 284.27 C797.41 285.71 797.41 285.71 795.41 287.39 C791.43 290.76 787.57 294.24 783.73 297.76 C781.85 299.27 781.85 299.27 779.85 299.27 C779.52 300.26 779.19 301.25 778.85 302.27 C778.19 302.27 777.53 302.27 776.85 302.27 C776.85 302.93 776.85 303.59 776.85 304.27 C775.2 305.89 775.2 305.89 773.03 307.7 C770.02 310.24 770.02 310.24 767.21 312.99 C765.85 314.27 765.85 314.27 763.85 314.27 C763.85 314.93 763.85 315.59 763.85 316.27 C762.39 317.77 762.39 317.77 760.47 319.39 C759.53 320.2 759.53 320.2 758.57 321.02 C756.85 322.27 756.85 322.27 754.85 322.27 C754.85 322.93 754.85 323.59 754.85 324.27 C753.2 325.89 753.2 325.89 751.03 327.7 C748.02 330.24 748.02 330.24 745.21 332.99 C743.85 334.27 743.85 334.27 741.85 334.27 C741.85 334.93 741.85 335.59 741.85 336.27 C740.45 337.68 740.45 337.68 738.47 339.33 C734.19 342.95 730.06 346.73 725.95 350.54 C723.85 352.27 723.85 352.27 721.85 352.27 C721.85 352.93 721.85 353.59 721.85 354.27 C721.19 354.27 720.53 354.27 719.85 354.27 C719.52 355.26 719.19 356.25 718.85 357.27 C718.19 357.27 717.53 357.27 716.85 357.27 C716.85 357.93 716.85 358.59 716.85 359.27 C715.52 360.61 715.52 360.61 713.6 362.2 C710.91 364.47 708.28 366.77 705.71 369.17 C705.18 369.67 704.64 370.17 704.09 370.69 C703.02 371.69 701.95 372.7 700.89 373.71 C697.07 377.27 697.07 377.27 694.85 377.27 C694.85 377.93 694.85 378.59 694.85 379.27 C689.37 384.27 689.37 384.27 686.85 384.27 C686.58 384.91 686.31 385.54 686.03 386.2 C684.85 388.27 684.85 388.27 681.85 389.27 C681.85 389.93 681.85 390.59 681.85 391.27 C680.45 392.68 680.45 392.68 678.47 394.33 C674.19 397.95 670.06 401.73 665.95 405.54 C663.85 407.27 663.85 407.27 661.85 407.27 C661.85 407.93 661.85 408.59 661.85 409.27 C661.19 409.27 660.53 409.27 659.85 409.27 C659.52 410.26 659.19 411.25 658.85 412.27 C658.19 412.27 657.53 412.27 656.85 412.27 C656.85 412.93 656.85 413.59 656.85 414.27 C655.21 415.72 653.51 417.1 651.78 418.45 C647.62 421.77 643.8 425.15 640.19 429.05 C638.85 430.27 638.85 430.27 636.85 430.27 C636.85 430.93 636.85 431.59 636.85 432.27 C636.19 432.27 635.53 432.27 634.85 432.27 C634.85 432.93 634.85 433.59 634.85 434.27 C629.37 439.27 629.37 439.27 626.85 439.27 C626.52 440.26 626.19 441.25 625.85 442.27 C625.19 442.27 624.53 442.27 623.85 442.27 C623.85 442.93 623.85 443.59 623.85 444.27 C623.19 444.27 622.53 444.27 621.85 444.27 C621.85 444.93 621.85 445.59 621.85 446.27 C620.15 447.78 618.39 449.23 616.6 450.64 C613.79 452.86 611.11 455 608.61 457.56 C606.85 459.27 606.85 459.27 604.85 459.27 C604.52 460.26 604.19 461.25 603.85 462.27 C603.19 462.27 602.53 462.27 601.85 462.27 C601.85 462.93 601.85 463.59 601.85 464.27 C600.2 465.89 600.2 465.89 598.03 467.7 C595.02 470.24 595.02 470.24 592.21 472.99 C590.85 474.27 590.85 474.27 588.85 474.27 C588.85 474.93 588.85 475.59 588.85 476.27 C587.39 477.77 587.39 477.77 585.47 479.39 C584.53 480.2 584.53 480.2 583.57 481.02 C581.85 482.27 581.85 482.27 579.85 482.27 C579.85 482.93 579.85 483.59 579.85 484.27 C578.2 485.89 578.2 485.89 576.03 487.7 C573.02 490.24 573.02 490.24 570.21 492.99 C568.85 494.27 568.85 494.27 566.85 494.27 C566.85 494.93 566.85 495.59 566.85 496.27 C565.38 497.75 565.38 497.75 563.35 499.45 C561.08 501.36 558.85 503.26 556.71 505.32 C555.7 506.28 555.7 506.28 554.66 507.27 C554.05 507.86 553.43 508.46 552.8 509.08 C550.85 510.27 550.85 510.27 548.11 509.95 C547.36 509.73 546.62 509.5 545.85 509.27 C545.85 508.61 545.85 507.95 545.85 507.27 C544.98 506.86 544.98 506.86 544.1 506.45 C541.79 505.24 539.83 503.96 537.85 502.27 C537.85 501.61 537.85 500.95 537.85 500.27 C537.27 500.01 536.7 499.75 536.11 499.48 C533.64 498.15 531.71 496.62 529.6 494.77 C528.89 494.16 528.18 493.55 527.46 492.92 C525.85 491.27 525.85 491.27 525.85 489.27 C525.26 489.01 524.68 488.75 524.07 488.49 C521.65 487.16 520.11 485.7 518.22 483.7 C515.8 481.13 515.8 481.13 512.85 479.27 C512.85 478.61 512.85 477.95 512.85 477.27 C512.01 476.89 512.01 476.89 511.16 476.52 C508.42 475.04 506.17 473.33 503.85 471.27 C503.85 470.61 503.85 469.95 503.85 469.27 C503.26 469.01 502.68 468.75 502.07 468.49 C499.65 467.16 498.11 465.7 496.22 463.7 C493.8 461.13 493.8 461.13 490.85 459.27 C490.85 458.61 490.85 457.95 490.85 457.27 C489.86 456.94 488.87 456.61 487.85 456.27 C487.85 455.61 487.85 454.95 487.85 454.27 C487.32 454.06 486.79 453.85 486.25 453.63 C482.84 451.7 480.23 449.08 477.41 446.39 C476.29 445.33 475.16 444.27 474.04 443.21 C473.5 442.71 472.97 442.2 472.41 441.68 C470.98 440.39 469.46 439.19 467.94 438.01 C467.25 437.43 466.56 436.86 465.85 436.27 C465.85 435.61 465.85 434.95 465.85 434.27 C465.04 433.93 465.04 433.93 464.22 433.58 C459.02 430.7 455.02 426.44 450.85 422.27 C448.98 420.69 447.1 419.13 445.2 417.6 C444.76 417.16 444.31 416.72 443.85 416.27 C443.85 415.61 443.85 414.95 443.85 414.27 C443.26 414 442.68 413.73 442.08 413.45 C439.82 412.25 438.04 410.93 436.1 409.27 C435.48 408.75 434.87 408.23 434.24 407.7 C432.85 406.27 432.85 406.27 432.85 404.27 C432.19 404.27 431.53 404.27 430.85 404.27 C430.85 403.61 430.85 402.95 430.85 402.27 C430.26 402 429.67 401.73 429.06 401.45 C426.83 400.26 425.29 399 423.46 397.26 C422.55 396.4 422.55 396.4 421.62 395.52 C420.68 394.62 420.68 394.62 419.72 393.7 C418.47 392.51 417.22 391.32 415.96 390.14 C415.41 389.61 414.86 389.08 414.3 388.54 C412.85 387.16 412.85 387.16 410.85 386.27 C410.85 385.61 410.85 384.95 410.85 384.27 C410.21 384 409.57 383.73 408.91 383.45 C406.85 382.27 406.85 382.27 405.85 379.27 C404 378.22 404 378.22 401.85 377.27 C399.6 375.77 399.6 375.77 397.85 374.27 C397.85 373.61 397.85 372.95 397.85 372.27 C397.27 372.01 396.68 371.75 396.09 371.48 C393.68 370.17 392 368.72 390.03 366.82 C389.33 366.16 388.63 365.49 387.91 364.81 C386.82 363.77 386.82 363.77 385.72 362.7 C384.28 361.33 382.84 359.95 381.4 358.57 C380.77 357.96 380.13 357.35 379.48 356.72 C377.9 355.18 377.9 355.18 375.85 354.27 C375.85 353.61 375.85 352.95 375.85 352.27 C374.86 351.94 373.87 351.61 372.85 351.27 C372.85 350.61 372.85 349.95 372.85 349.27 C372.32 349.06 371.79 348.85 371.25 348.63 C367.84 346.7 365.23 344.08 362.41 341.39 C361.29 340.33 360.16 339.27 359.04 338.21 C358.5 337.71 357.97 337.2 357.41 336.68 C355.98 335.39 354.46 334.19 352.94 333.01 C352.25 332.43 351.56 331.86 350.85 331.27 C350.85 330.61 350.85 329.95 350.85 329.27 C350.04 328.93 350.04 328.93 349.22 328.58 C345 326.24 341 322.94 337.85 319.27 C337.85 318.61 337.85 317.95 337.85 317.27 C337.01 316.89 337.01 316.89 336.16 316.52 C333.42 315.04 331.17 313.33 328.85 311.27 C328.85 310.61 328.85 309.95 328.85 309.27 C328.26 309.01 327.68 308.75 327.07 308.49 C324.65 307.16 323.11 305.7 321.22 303.7 C318.8 301.13 318.8 301.13 315.85 299.27 C315.85 298.61 315.85 297.95 315.85 297.27 C314.86 296.94 313.87 296.61 312.85 296.27 C312.85 295.61 312.85 294.95 312.85 294.27 C312.3 294.04 311.76 293.81 311.2 293.58 C308.11 291.85 305.8 289.62 303.22 287.2 C299.8 283.85 299.8 283.85 295.85 281.27 C295.85 280.61 295.85 279.95 295.85 279.27 C295.19 279.27 294.53 279.27 293.85 279.27 C293.85 278.61 293.85 277.95 293.85 277.27 C292.86 276.94 291.87 276.61 290.85 276.27 C290.85 275.61 290.85 274.95 290.85 274.27 C289.98 273.86 289.98 273.86 289.1 273.45 C286.79 272.24 284.83 270.96 282.85 269.27 C282.85 268.61 282.85 267.95 282.85 267.27 C282.25 267 281.66 266.74 281.05 266.47 C278.77 265.22 277.37 263.96 275.6 262.08 C271.04 257.38 266.3 252.9 260.85 249.27 C260.85 248.61 260.85 247.95 260.85 247.27 C259.86 246.94 258.87 246.61 257.85 246.27 C257.85 245.61 257.85 244.95 257.85 244.27 C257.19 244.27 256.53 244.27 255.85 244.27 C255.85 243.61 255.85 242.95 255.85 242.27 C254.98 241.86 254.98 241.86 254.1 241.45 C251.79 240.24 249.83 238.96 247.85 237.27 C247.85 236.61 247.85 235.95 247.85 235.27 C247.27 235.01 246.7 234.75 246.11 234.48 C243.64 233.15 241.71 231.62 239.6 229.77 C238.89 229.16 238.18 228.55 237.46 227.92 C235.85 226.27 235.85 226.27 235.85 224.27 C235.26 224.01 234.68 223.75 234.07 223.49 C231.65 222.16 230.11 220.7 228.22 218.7 C225.8 216.13 225.8 216.13 222.85 214.27 C222.85 213.61 222.85 212.95 222.85 212.27 C222.29 212.02 221.73 211.77 221.16 211.52 C218.42 210.04 216.17 208.33 213.85 206.27 C213.85 205.61 213.85 204.95 213.85 204.27 C213.26 204.01 212.68 203.75 212.07 203.49 C209.65 202.16 208.11 200.7 206.22 198.7 C203.8 196.13 203.8 196.13 200.85 194.27 C200.85 193.61 200.85 192.95 200.85 192.27 C199.86 191.94 198.87 191.61 197.85 191.27 C197.85 190.61 197.85 189.95 197.85 189.27 C197.27 189 196.69 188.73 196.1 188.45 C193.79 187.24 191.83 185.96 189.85 184.27 C189.85 183.61 189.85 182.95 189.85 182.27 C188.97 181.86 188.97 181.86 188.07 181.45 C185.85 180.27 184.17 178.98 182.28 177.33 C181.42 176.57 181.42 176.57 180.53 175.8 C177.15 172.71 177.15 172.71 175.85 171.27 C175.85 170.61 175.85 169.95 175.85 169.27 C175.04 168.93 175.04 168.93 174.22 168.58 C171.02 166.81 168.56 164.73 165.85 162.27 C165.85 161.61 165.85 160.95 165.85 160.27 C165.25 160 164.66 159.73 164.05 159.45 C161.87 158.28 160.36 157.07 158.57 155.37 C157.97 154.81 157.38 154.24 156.76 153.66 C155.85 152.79 155.85 152.79 154.91 151.89 C153.69 150.74 152.48 149.58 151.26 148.43 C150.68 147.88 150.1 147.34 149.51 146.77 C148.04 145.44 146.48 144.2 144.91 142.98 C144.23 142.41 143.55 141.85 142.85 141.27 C142.85 140.61 142.85 139.95 142.85 139.27 C142.19 139.27 141.53 139.27 140.85 139.27 C140.85 138.61 140.85 137.95 140.85 137.27 C140.26 137 139.67 136.73 139.06 136.45 C136.83 135.26 135.29 134 133.46 132.26 C132.85 131.69 132.24 131.11 131.62 130.52 C130.99 129.92 130.37 129.32 129.72 128.7 C128.47 127.51 127.22 126.32 125.96 125.14 C125.41 124.61 124.86 124.08 124.3 123.54 C122.85 122.16 122.85 122.16 120.85 121.27 C120.85 120.61 120.85 119.95 120.85 119.27 C120.26 119.01 119.68 118.75 119.07 118.49 C116.65 117.16 115.11 115.7 113.22 113.7 C110.8 111.13 110.8 111.13 107.85 109.27 C107.85 108.61 107.85 107.95 107.85 107.27 C106.98 106.88 106.98 106.88 106.09 106.48 C103.68 105.17 102 103.72 100.03 101.82 C99.33 101.16 98.63 100.49 97.91 99.81 C96.82 98.77 96.82 98.77 95.72 97.7 C94.28 96.33 92.84 94.95 91.4 93.57 C90.77 92.96 90.13 92.35 89.48 91.72 C87.9 90.18 87.9 90.18 85.85 89.27 C85.85 88.61 85.85 87.95 85.85 87.27 C84.36 86.77 84.36 86.77 82.85 86.27 C82.85 85.61 82.85 84.95 82.85 84.27 C82.32 84.06 81.79 83.85 81.25 83.63 C77.84 81.7 75.23 79.08 72.41 76.39 C71.29 75.33 70.16 74.27 69.04 73.21 C68.5 72.71 67.97 72.2 67.41 71.68 C65.98 70.39 64.46 69.19 62.94 68.01 C61.9 67.15 61.9 67.15 60.85 66.27 C60.85 65.61 60.85 64.95 60.85 64.27 C60.31 64.04 59.77 63.81 59.22 63.58 C55 61.24 51 57.94 47.85 54.27 C47.85 53.61 47.85 52.95 47.85 52.27 C47.29 52.02 46.73 51.77 46.16 51.52 C43.42 50.04 41.17 48.33 38.85 46.27 C38.85 45.61 38.85 44.95 38.85 44.27 C38.26 44 37.68 43.73 37.08 43.45 C34.82 42.25 33.04 40.93 31.1 39.27 C30.48 38.75 29.87 38.23 29.24 37.7 C27.85 36.27 27.85 36.27 27.85 34.27 C27.19 34.27 26.53 34.27 25.85 34.27 C25.85 33.61 25.85 32.95 25.85 32.27 C24.86 31.94 23.87 31.61 22.85 31.27 C22.85 30.61 22.85 29.95 22.85 29.27 C22.3 29.04 21.76 28.81 21.2 28.58 C18.11 26.85 15.8 24.62 13.22 22.2 C9.8 18.85 9.8 18.85 5.85 16.27 C5.85 15.61 5.85 14.95 5.85 14.27 C5.19 14.27 4.53 14.27 3.85 14.27 C3.85 13.61 3.85 12.95 3.85 12.27 C2.86 11.94 1.87 11.61 0.85 11.27 C0.85 10.61 0.85 9.95 0.85 9.27 C0.27 9.04 -0.31 8.81 -0.9 8.58 C-3.72 6.94 -5.23 4.87 -7.15 2.27 C-4.7 -0.19 -3.35 0.03 0 0 Z " fill="#000000" transform="translate(91.15305253863335,193.73401964339428)"/>
</svg>
